<?xml version="1.0" encoding="UTF-8" standalone="no"?>
<svg
   xmlns:dc="http://purl.org/dc/elements/1.1/"
   xmlns:cc="http://creativecommons.org/ns#"
   xmlns:rdf="http://www.w3.org/1999/02/22-rdf-syntax-ns#"
   xmlns:svg="http://www.w3.org/2000/svg"
   xmlns="http://www.w3.org/2000/svg"
   xmlns:sodipodi="http://sodipodi.sourceforge.net/DTD/sodipodi-0.dtd"
   xmlns:inkscape="http://www.inkscape.org/namespaces/inkscape"
   viewBox="0 0 64 64"
   enable-background="new 0 0 64 64"
   version="1.1"
   id="svg5521"
   sodipodi:docname="Emojione_1F1F8-1F1FE[1].svg"
   inkscape:version="1.0.1 (3bc2e813f5, 2020-09-07)">
  <metadata
     id="metadata5527">
    <rdf:RDF>
      <cc:Work
         rdf:about="">
        <dc:format>image/svg+xml</dc:format>
        <dc:type
           rdf:resource="http://purl.org/dc/dcmitype/StillImage" />
        <dc:title></dc:title>
      </cc:Work>
    </rdf:RDF>
  </metadata>
  <defs
     id="defs5525" />
  <sodipodi:namedview
     pagecolor="#ffffff"
     bordercolor="#666666"
     borderopacity="1"
     objecttolerance="10"
     gridtolerance="10"
     guidetolerance="10"
     inkscape:pageopacity="0"
     inkscape:pageshadow="2"
     inkscape:window-width="1920"
     inkscape:window-height="1001"
     id="namedview5523"
     showgrid="false"
     inkscape:snap-bbox="true"
     inkscape:bbox-nodes="false"
     inkscape:bbox-paths="false"
     inkscape:snap-bbox-edge-midpoints="false"
     inkscape:snap-bbox-midpoints="false"
     inkscape:zoom="13.088354"
     inkscape:cx="35.071955"
     inkscape:cy="40.191778"
     inkscape:window-x="-9"
     inkscape:window-y="-9"
     inkscape:window-maximized="1"
     inkscape:current-layer="svg5521" />
  <path
     fill="#e6e7e8"
     d="M 0,25 H 64 V 39 H 0 Z"
     id="path5507" />
  <path
     fill="#ec1c24"
     d="M 54,10 H 10 C 3.373,10 0,14.925 0,21 v 4 H 64 V 21 C 64,14.925 60.627,10 54,10"
     id="path5509"
     style="fill:#137a08;fill-opacity:1" />
  <path
     fill="#25333a"
     d="m 0,43 c 0,6.075 3.373,11 10,11 h 44 c 6.627,0 10,-4.925 10,-11 V 39 H 0 v 4"
     id="path5511" />
  <path
     fill="#137a08"
     d="m 15.734,26.342 1.768,3.583 3.957,0.579 -2.862,2.796 0.676,3.93 -3.539,-1.86 -3.54,1.86 0.678,-3.93 -2.862,-2.796 3.958,-0.579 z"
     id="path5513"
     style="fill:#ec1c24;fill-opacity:1" />
  <path
     fill="#137a08"
     d="m 47.946997,26.342 1.768,3.583 3.958,0.579 -2.863,2.796 0.68,3.93 -3.543,-1.86 -3.537,1.86 0.68,-3.93 -2.87,-2.796 3.96,-0.579 z"
     id="path5515"
     style="fill:#ec1c24;fill-opacity:1" />
  <path
     fill="#137a08"
     d="m 31.839999,26.342 1.768,3.583 3.958,0.579 -2.863,2.796 0.68,3.93 -3.543,-1.86 -3.537,1.86 0.68,-3.93 -2.87,-2.796 3.96,-0.579 z"
     id="path5515-6"
     style="fill:#ec1c24;fill-opacity:1" />
</svg>
